<svg width="61" height="51" viewBox="0 0 61 51" fill="none" xmlns="http://www.w3.org/2000/svg">
<path d="M1.70001 1.69995H58.5357" stroke="white" stroke-width="3.4" stroke-linecap="square"/>
<path d="M11.1986 49.0371C12.6922 49.0371 14.1524 48.5942 15.3943 47.7644C16.6363 46.9345 17.6042 45.7551 18.1758 44.3751C18.7474 42.9951 18.897 41.4766 18.6056 40.0117C18.3142 38.5467 17.5949 37.201 16.5387 36.1448C15.4826 35.0886 14.1369 34.3694 12.6719 34.078C11.2069 33.7866 9.68846 33.9361 8.30849 34.5077C6.92851 35.0793 5.74903 36.0473 4.91919 37.2893C4.08935 38.5312 3.64642 39.9913 3.64642 41.485C3.64642 42.4768 3.84177 43.4588 4.2213 44.3751C4.60083 45.2914 5.15711 46.1239 5.8584 46.8252C6.55968 47.5265 7.39222 48.0827 8.30849 48.4623C9.22476 48.8418 10.2068 49.0371 11.1986 49.0371V49.0371Z" stroke="white" stroke-width="3.4" stroke-linecap="square"/>
<path d="M11.1986 33.9328V1.62207" stroke="white" stroke-width="3.4"/>
<path d="M26.3807 49.037C27.871 49.0216 29.3234 48.5657 30.555 47.7266C31.7867 46.8874 32.7426 45.7026 33.3022 44.3214C33.8619 42.9401 34.0004 41.4242 33.7003 39.9644C33.4001 38.5045 32.6748 37.1662 31.6156 36.1178C30.5564 35.0694 29.2106 34.3578 27.7478 34.0726C26.285 33.7875 24.7705 33.9415 23.3951 34.5153C22.0197 35.0892 20.8447 36.0571 20.0183 37.2973C19.1918 38.5375 18.7508 39.9945 18.7507 41.4848C18.7507 42.4832 18.9486 43.4716 19.333 44.393C19.7173 45.3144 20.2806 46.1504 20.9902 46.8527C21.6997 47.555 22.5415 48.1097 23.4667 48.4846C24.392 48.8595 25.3824 49.0473 26.3807 49.037V49.037Z" stroke="white" stroke-width="3.4" stroke-linecap="square"/>
<path d="M26.3807 33.9328V1.62207" stroke="white" stroke-width="3.4"/>
<path d="M57.3679 31.8307C58.1312 33.1101 58.499 34.5867 58.4251 36.0747C58.3511 37.5626 57.8388 38.9955 56.9525 40.1929C56.0661 41.3904 54.8455 42.299 53.444 42.8043C52.0425 43.3097 50.5229 43.3892 49.0763 43.033C47.6298 42.6768 46.3209 41.9006 45.3143 40.8022C44.3078 39.7039 43.6486 38.3324 43.4198 36.8603C43.1909 35.3882 43.4025 33.8812 44.028 32.5291C44.6535 31.177 45.6649 30.0401 46.935 29.2614C47.7824 28.7357 48.7256 28.383 49.71 28.2237C50.6944 28.0644 51.7006 28.1016 52.6706 28.3333C53.6406 28.5649 54.555 28.9863 55.3613 29.5733C56.1675 30.1602 56.8495 30.901 57.3679 31.7529V31.8307Z" stroke="white" stroke-width="3.4" stroke-linecap="square"/>
<path d="M48.1807 28.7164L37.5143 1.69995" stroke="white" stroke-width="3.4"/>
</svg>
