<svg width="140" height="31" viewBox="0 0 140 31" fill="none" xmlns="http://www.w3.org/2000/svg">
<path d="M75.4876 5.90458H79.3528V30.64H75.4876V5.90458ZM51.1103 27.3502C48.3598 27.3502 46.2195 25.7014 45.4258 23.316L60.3312 19.4355C59.6942 13.4451 55.322 10.3231 50.8223 10.3231C49.4685 10.3176 48.1295 10.6075 46.8978 11.1729C45.6661 11.7382 44.5711 12.5654 43.6881 13.5976C42.1033 15.4577 41.2459 17.92 41.2459 20.6257C41.2459 26.9953 45.7048 30.9308 51.1829 30.9308C54.8557 30.9308 57.7056 29.2654 59.2331 27.0683L56.5004 24.77C55.387 26.4175 53.2047 27.3502 51.1103 27.3502ZM50.8007 13.9217C53.2416 13.9217 54.9869 15.2361 55.8698 17.1949L45.0895 19.9992C45.1532 16.5697 47.3814 13.9217 50.8007 13.9217ZM30.8695 10.3256C25.7163 10.3256 22.4613 13.6334 22.4613 18.6169V30.64H26.3278V18.6169C26.3278 15.6332 27.7776 14.0126 30.8669 14.0126C33.9563 14.0126 35.3857 15.6294 35.3857 18.6169V30.64H39.2522V18.6169C39.2535 13.6334 36.0227 10.3256 30.8695 10.3256ZM10.2503 30.9359C8.22337 30.9362 6.24185 30.3321 4.55631 29.1999C2.87078 28.0677 1.55693 26.4584 0.780899 24.5754C0.00486447 22.6924 -0.198506 20.6203 0.196503 18.621C0.591511 16.6218 1.56716 14.7852 3.00008 13.3436C4.43301 11.9019 6.25885 10.9199 8.24676 10.5217C10.2347 10.1235 12.2954 10.3269 14.1683 11.1064C16.0412 11.8858 17.6422 13.2062 18.7689 14.9006C19.8956 16.595 20.4974 18.5874 20.4981 20.6257C20.4964 23.3587 19.4164 25.9794 17.4951 27.9125C15.5737 29.8455 12.9682 30.9329 10.2503 30.9359ZM10.2503 14.0255C6.73929 14.0255 3.88051 16.9899 3.88051 20.6346C3.88051 24.2794 6.73674 27.2425 10.2503 27.2425C13.7639 27.2425 16.6202 24.2781 16.6202 20.6346C16.6202 16.9912 13.7639 14.0255 10.2503 14.0255ZM91.5676 30.9359C89.5406 30.9362 87.5591 30.3321 85.8736 29.1999C84.188 28.0677 82.8742 26.4584 82.0982 24.5754C81.3221 22.6924 81.1188 20.6203 81.5138 18.621C81.9088 16.6218 82.8844 14.7852 84.3173 13.3436C85.7503 11.9019 87.5761 10.9199 89.564 10.5217C91.5519 10.1235 93.6126 10.3269 95.4855 11.1064C97.3584 11.8858 98.9595 13.2062 100.086 14.9006C101.213 16.595 101.815 18.5874 101.815 20.6257C101.813 23.3586 100.733 25.9791 98.812 27.9121C96.8907 29.845 94.2853 30.9326 91.5676 30.9359ZM91.5676 14.0255C88.0565 14.0255 85.1978 16.9899 85.1978 20.6346C85.1978 24.2794 88.0553 27.2425 91.5676 27.2425C95.0799 27.2425 97.9374 24.2781 97.9374 20.6346C97.9374 16.9912 95.0812 14.0255 91.5676 14.0255ZM66.2539 14.7121V13.677C66.2539 11.9514 66.3176 11.1801 67.0361 10.3256C67.7546 9.47116 69.0184 9.08683 70.6746 9.08683C71.4873 9.07113 72.2992 9.14719 73.0951 9.31358V5.8149C72.1261 5.61496 71.1388 5.51834 70.1497 5.52666C67.6578 5.52666 65.8883 6.13646 64.6309 7.17287C62.9301 8.57439 62.4027 10.4012 62.4027 13.3785V30.64H66.2679V18.1147L71.6033 16.7145V13.3106L66.2539 14.7121ZM129.411 18.3261V22.6511C129.411 25.6335 127.967 27.2541 124.921 27.2554C123.403 27.2554 122.266 26.8159 121.543 26.046C120.684 25.1339 120.466 24.2025 120.461 22.678V10.6331H116.596V22.6575C116.596 24.3614 116.242 25.3311 115.494 26.078C114.746 26.8249 113.63 27.2605 112.108 27.2618C109.097 27.2618 107.649 25.6309 107.649 22.6575V10.6331H103.781V23.1072C103.781 25.4042 104.418 27.2451 105.865 28.6735C107.521 30.3005 109.709 30.9488 112.136 30.9488C114.811 30.9488 117.088 29.9405 118.529 28.293C119.963 29.9341 122.235 30.9488 124.951 30.9488C127.499 30.9488 129.692 30.1801 131.132 28.735C132.598 27.2643 133.276 25.6117 133.276 22.8958V18.3261H129.411ZM129.41 2.84916H133.276V6.73729H129.41V2.84916ZM129.41 10.6241H133.276V14.511H129.41V10.6241ZM125.544 6.73729H129.411V10.6241H125.544V6.73729ZM133.276 6.73729H137.142V10.6241H133.276V6.73729ZM136.103 0H139.969V3.88813H136.103V0Z" fill="black"/>
</svg>
